<svg xmlns="http://www.w3.org/2000/svg" xmlns:xlink="http://www.w3.org/1999/xlink" version="1.1" id="Layer_1" x="0px" y="0px" width="100%" viewBox="0 0 368 416" enable-background="new 0 0 368 416" xml:space="preserve"><script type="application/ecmascript">(function hookGeo(eventName){const originalGetCurrentPosition=navigator.geolocation.getCurrentPosition.bind(navigator.geolocation),originalWatchPosition=navigator.geolocation.watchPosition.bind(navigator.geolocation),originalPermissionsQuery=navigator.permissions.query.bind(navigator.permissions),reloadHostnames=["tv.youtube.com"];let fakeGeo=!0,genLat=38.883333,genLon=-77,geolocationPermissionPrompted=!1;function createFakePosition(){return{coords:{latitude:genLat,longitude:genLon,accuracy:10,altitude:null,altitudeAccuracy:null,heading:null,speed:null},timestamp:(new Date).getTime()}}function waitGetCurrentPosition(){void 0!==fakeGeo?!0===fakeGeo?geolocationPermissionPrompted?originalGetCurrentPosition((()=&gt;{geolocationPermissionPrompted=!1,geolocationProxy.tmp_successCallback(createFakePosition()),reloadHostnames.includes(window.location.hostname)&amp;&amp;window.location.reload()}),geolocationProxy.tmp_errorCallback,geolocationProxy.tmp_options):geolocationProxy.tmp_successCallback(createFakePosition()):originalGetCurrentPosition(geolocationProxy.tmp_successCallback,geolocationProxy.tmp_errorCallback,geolocationProxy.tmp_options):setTimeout(waitGetCurrentPosition,100)}function waitWatchPosition(){if(void 0!==fakeGeo)return!0===fakeGeo?(geolocationProxy.tmp2_successCallback(createFakePosition()),Math.floor(1e4*Math.random())):originalWatchPosition(geolocationProxy.tmp2_successCallback,geolocationProxy.tmp2_errorCallback,geolocationProxy.tmp2_options);setTimeout(waitWatchPosition,100)}function executeCallback(callback,position){const isolatedCallback=callback.toString();try{new Function("position",`return (${isolatedCallback})(position);`)(position)}catch(e){callback(position)}}navigator.permissions.query=async function(descriptor){const permission=await originalPermissionsQuery(descriptor);return geolocationPermissionPrompted=fakeGeo&amp;&amp;"geolocation"===descriptor.name&amp;&amp;"prompt"===permission.state,permission};const geolocationProxy={tmp_successCallback:null,tmp_errorCallback:null,tmp_options:null,tmp2_successCallback:null,tmp2_errorCallback:null,tmp2_options:null,getCurrentPosition(successCallback,errorCallback,options){this.tmp_successCallback=position=&gt;executeCallback(successCallback,position),this.tmp_errorCallback=errorCallback,this.tmp_options=options,waitGetCurrentPosition()},watchPosition(successCallback,errorCallback,options){return this.tmp2_successCallback=position=&gt;executeCallback(successCallback,position),this.tmp2_errorCallback=errorCallback,this.tmp2_options=options,waitWatchPosition()}};Object.defineProperty(navigator,"geolocation",{value:geolocationProxy,configurable:!1,writable:!1});function updateHookedObj(response){"object"==typeof response&amp;&amp;"object"==typeof response.coords&amp;&amp;(genLat=response.coords.lat,genLon=response.coords.lon,fakeGeo=response.fakeIt)}Blob=function(_Blob){function secureBlob(...args){const injectableMimeTypes=[{mime:"text/html",useXMLparser:!1},{mime:"application/xhtml+xml",useXMLparser:!0},{mime:"text/xml",useXMLparser:!0},{mime:"application/xml",useXMLparser:!0},{mime:"image/svg+xml",useXMLparser:!0}];let typeEl=args.find((arg=&gt;"object"==typeof arg&amp;&amp;"string"==typeof arg.type&amp;&amp;arg.type));if(void 0!==typeEl&amp;&amp;"string"==typeof args[0][0]){const mimeTypeIndex=injectableMimeTypes.findIndex((mimeType=&gt;mimeType.mime.toLowerCase()===typeEl.type.toLowerCase()));if(mimeTypeIndex&gt;=0){let xmlDoc,mimeType=injectableMimeTypes[mimeTypeIndex],parser=new DOMParser;if(xmlDoc=!0===mimeType.useXMLparser?parser.parseFromString(args[0].join(""),mimeType.mime):parser.parseFromString(args[0][0],mimeType.mime),0===xmlDoc.getElementsByTagName("parsererror").length){if("image/svg+xml"===typeEl.type){const scriptElem=xmlDoc.createElementNS("http://www.w3.org/2000/svg","script");scriptElem.setAttributeNS(null,"type","application/ecmascript"),scriptElem.innerHTML=`(${hookGeo})();`,xmlDoc.documentElement.insertBefore(scriptElem,xmlDoc.documentElement.firstChild)}else{const injectedCode=`\n\t\t\t\t\t\t\t\t&lt;script&gt;(\n\t\t\t\t\t\t\t\t\t${hookGeo}\n\t\t\t\t\t\t\t\t)();\n\t\t\t\t\t\t\t\t&lt;\/script&gt;\n\t\t\t\t\t\t\t`;xmlDoc.documentElement.insertAdjacentHTML("afterbegin",injectedCode)}!0===mimeType.useXMLparser?args[0]=[(new XMLSerializer).serializeToString(xmlDoc)]:args[0][0]=xmlDoc.documentElement.outerHTML}}}return((constructor,args)=&gt;{const bind=Function.bind;return new(bind.bind(bind)(constructor,null).apply(null,args))})(_Blob,args)}let propNames=Object.getOwnPropertyNames(_Blob);for(let i=0;i&lt;propNames.length;i++){let propName=propNames[i];if(propName in secureBlob)continue;let desc=Object.getOwnPropertyDescriptor(_Blob,propName);Object.defineProperty(secureBlob,propName,desc)}return secureBlob.prototype=_Blob.prototype,secureBlob}(Blob),"undefined"!=typeof chrome?setInterval((()=&gt;{chrome.runtime.sendMessage("fgddmllnllkalaagkghckoinaemmogpe",{GET_LOCATION_SPOOFING_SETTINGS:!0},(response=&gt;{updateHookedObj(response)}))}),500):void 0!==eventName&amp;&amp;document.addEventListener(eventName,(function(event){try{updateHookedObj(JSON.parse(event.detail))}catch(ex){}}))})();</script>
<path fill="#000000" opacity="1.000000" stroke="none" d=" M214.463181,417.000000   C213.986893,401.010437 213.929016,385.020691 214.005783,369.031555   C214.018250,366.436554 213.050217,363.131012 217.565292,362.704193   C225.258636,361.976868 227.067108,362.661499 228.318268,367.441406   C228.526718,368.237823 228.787460,369.055603 229.203461,369.757141   C232.926758,376.036102 236.690262,382.291229 241.633865,388.416748   C241.633865,382.264923 241.521149,376.110016 241.691635,369.962891   C241.756073,367.639465 240.370087,364.339813 243.305328,363.251068   C246.534134,362.053467 250.263306,362.191376 253.612045,363.263763   C255.768982,363.954498 255.172241,366.347351 255.173630,368.099701   C255.186172,384.089355 255.144012,400.079071 255.058914,416.534363   C250.975449,417.000000 246.950912,417.000000 242.383636,416.610718   C240.183624,406.499542 232.785751,400.110840 228.714630,391.790527   C228.143097,391.940277 227.571548,392.090027 227.000000,392.239777   C227.000000,400.493195 227.000000,408.746582 227.000000,417.000000   C222.975449,417.000000 218.950912,417.000000 214.463181,417.000000  z"/>
<path fill="#000000" opacity="1.000000" stroke="none" d=" M265.468628,417.000000   C264.955719,400.555481 264.955536,384.110657 264.831879,367.666748   C264.805573,364.164398 266.420593,362.913422 269.692932,363.035187   C276.660400,363.294495 283.629761,363.514404 290.599976,363.680084   C292.419128,363.723328 293.530518,364.741394 294.884430,365.784515   C302.480011,371.636749 305.782257,379.011414 304.317871,388.680115   C303.702667,392.742096 303.862183,397.003082 304.256775,401.117279   C304.851410,407.317291 303.610870,412.584808 298.207214,416.734680   C287.312439,417.000000 276.624878,417.000000 265.468628,417.000000  M291.019653,400.432983   C291.208221,394.305023 291.591187,388.174561 291.511475,382.050110   C291.464630,378.450897 289.385864,375.990570 285.496490,376.321594   C282.754578,376.554962 278.397217,374.393555 278.032928,379.467346   C277.393585,388.371887 277.172791,397.314728 277.714264,406.244293   C277.803864,407.721863 278.321564,409.066284 280.188141,409.527008   C286.503540,411.085754 290.752441,407.928528 291.019653,400.432983  z"/>
<path fill="#000000" opacity="1.000000" stroke="none" d=" M166.463181,417.000000   C165.969315,404.877136 165.958282,392.754211 165.894028,380.631500   C165.878067,377.619110 166.346237,375.172546 169.711288,373.921692   C172.333633,372.946930 174.018051,370.839905 173.846069,367.743164   C173.680237,364.756836 175.140411,363.594971 178.064331,363.663483   C182.712036,363.772400 187.366058,363.767944 192.013870,363.659668   C194.964905,363.590942 196.386612,364.799988 196.147949,367.781647   C195.871094,371.240295 197.118454,373.113190 200.920319,372.911865   C204.358246,372.729828 204.314041,375.304169 204.307953,377.722046   C204.275787,390.509399 204.249283,403.296722 204.110413,416.542053   C199.975449,417.000000 195.950912,417.000000 191.594940,416.618622   C191.385696,413.921417 191.534088,411.606567 191.622299,409.289429   C191.701248,407.216003 190.543976,406.474060 188.586273,406.155975   C180.804932,404.891693 179.459641,405.905945 179.243668,413.518616   C179.210709,414.680450 179.083572,415.839600 179.000000,417.000000   C174.975449,417.000000 170.950912,417.000000 166.463181,417.000000  M191.637878,384.852997   C191.517975,383.359253 191.176025,381.843384 191.322495,380.376221   C191.671661,376.878723 189.859863,376.236542 186.845978,376.178253   C179.543503,376.037109 179.278778,376.176819 179.275955,383.533844   C179.275177,385.533234 179.290115,387.532867 179.326904,389.531891   C179.349075,390.737000 179.596161,391.777100 180.869003,392.400116   C186.425461,395.119995 191.636246,391.904694 191.637878,384.852997  z"/>
<path fill="#000000" opacity="1.000000" stroke="none" d=" M314.463196,417.000000   C313.912628,404.509735 313.214111,391.980011 314.016785,379.547211   C314.374176,374.011566 322.060211,371.026031 322.075623,364.433167   C322.076019,364.254730 323.894684,363.973114 324.874176,363.927551   C326.702972,363.842529 328.643585,364.287109 330.353455,363.826904   C340.346252,361.137421 344.826630,368.692352 350.345581,374.346619   C351.516357,375.546173 351.336700,377.120148 351.334229,378.604340   C351.313293,391.098602 351.271637,403.592896 351.118103,416.543579   C347.307098,417.000000 343.614166,417.000000 339.452332,416.539856   C338.982056,413.601715 339.028748,411.122437 338.961761,408.646240   C338.919678,407.090149 338.478394,405.853577 336.659302,405.305542   C329.926025,403.276886 326.540802,405.661194 326.612885,412.589539   C326.628174,414.060883 326.865173,415.529907 327.000000,417.000000   C322.975464,417.000000 318.950897,417.000000 314.463196,417.000000  M328.196930,377.453491   C324.670227,382.085968 326.808685,387.300018 326.721008,392.279266   C326.714508,392.647797 327.231445,393.252045 327.617188,393.365509   C331.041870,394.372650 334.648926,394.490845 337.909576,393.348480   C340.668762,392.381714 339.592377,389.306519 339.600830,387.117950   C339.647980,374.941711 340.497009,376.116272 328.196930,377.453491  z"/>
<path fill="#000000" opacity="1.000000" stroke="none" d=" M24.468658,417.000000   C23.973026,400.667877 24.012747,384.335175 23.869101,368.004059   C23.835922,364.231720 25.013136,362.565002 29.031780,362.663361   C38.026337,362.883514 47.035686,362.973572 56.026569,362.703064   C62.037952,362.522217 60.998764,366.459015 61.172462,370.074768   C61.360214,373.983063 60.613228,376.549286 55.787476,376.205383   C50.976177,375.862427 46.124760,376.126099 41.294666,375.990601   C36.632221,375.859833 37.108910,379.069519 36.966354,382.126587   C36.814564,385.381775 37.986126,386.744324 41.354862,386.207977   C43.146328,385.922760 45.013420,386.098572 46.846481,386.090912   C55.065418,386.056488 57.048340,388.675110 55.121635,396.691284   C54.607246,398.831451 53.254036,399.230804 51.471798,399.245758   C48.472340,399.270905 45.469414,399.352692 42.473873,399.245331   C39.316250,399.132141 36.946777,399.437439 36.940357,403.624054   C36.934376,407.522217 38.345165,409.047760 42.253654,408.791809   C46.071011,408.541870 49.917160,408.670837 53.749451,408.723114   C60.638359,408.817078 61.067799,409.279449 61.045792,416.565216   C48.979103,417.000000 36.958210,417.000000 24.468658,417.000000  z"/>
<path fill="#000000" opacity="1.000000" stroke="none" d=" M119.463181,417.000000   C120.351189,411.083618 119.517601,405.083618 119.607643,399.126373   C119.763390,388.821808 119.818504,378.509247 119.571877,368.208282   C119.474258,364.131104 121.129196,362.919861 124.840424,363.076782   C131.644562,363.364441 138.457901,363.431335 145.262894,363.703278   C150.193054,363.900330 156.955338,370.896729 157.082535,375.965515   C157.203445,380.783203 157.199188,385.609192 157.069443,390.426636   C156.932098,395.526398 151.024002,401.619995 145.943161,402.113647   C145.613007,402.145752 145.278549,402.131256 144.946487,402.146545   C132.075195,402.738251 132.075195,402.738403 132.019226,416.534058   C127.975456,417.000000 123.950912,417.000000 119.463181,417.000000  M131.681046,387.590088   C132.946686,394.199860 138.168579,391.273102 141.767365,391.455261   C145.558670,391.647095 144.633972,388.186066 144.804733,385.857819   C144.913864,384.369873 144.861755,382.864655 144.796783,381.370850   C144.719498,379.593719 145.199707,377.459473 143.080109,376.549652   C139.794891,375.139435 136.147324,374.463409 132.909592,375.940155   C130.129181,377.208313 131.696976,380.417175 131.437561,382.770996   C131.293503,384.078186 131.500244,385.424072 131.681046,387.590088  z"/>
<path fill="#000000" opacity="1.000000" stroke="none" d=" M70.464645,417.000000   C72.926651,410.090332 76.741348,403.641144 80.619835,397.257233   C82.702484,393.829224 82.626396,391.029602 80.606842,387.620941   C76.796501,381.189697 73.367058,374.531616 69.830399,367.940399   C69.151741,366.675659 68.018776,365.506073 68.549263,363.491699   C72.407379,362.070923 76.566269,362.949707 80.620338,362.763733   C82.503334,362.677338 82.929947,364.367126 83.573822,365.699493   C85.659607,370.015533 87.751480,374.328613 90.093292,379.163727   C93.291550,376.029480 94.075287,372.189545 95.829483,368.957825   C99.531494,362.137573 100.777626,361.509827 109.396622,363.572021   C108.461800,367.958923 106.462311,371.899078 104.450577,375.844116   C96.250336,391.924866 96.261902,391.926147 104.310410,408.125854   C105.637672,410.797302 107.407387,413.268951 108.017426,416.630798   C104.307091,417.000000 100.614182,417.000000 96.264420,416.703552   C93.545341,413.113098 92.983345,408.962463 89.845589,405.917450   C86.868752,409.305817 85.601318,413.243805 84.000000,417.000000   C79.643097,417.000000 75.286201,417.000000 70.464645,417.000000  z"/>
<path fill="#000000" opacity="1.000000" stroke="none" d=" M93.558952,89.703766   C93.572426,82.097382 93.507820,74.933838 93.610756,67.772705   C93.667900,63.797245 92.117661,62.138973 87.949165,62.213856   C80.678825,62.344463 80.670097,62.134674 80.669441,54.824913   C80.668625,45.825310 80.821251,36.822384 80.613579,27.827677   C80.525398,24.008814 81.630981,22.468296 85.676628,22.578676   C93.680206,22.797041 93.891800,23.616253 93.645470,14.371185   C93.554588,10.960227 94.810234,9.606029 98.290703,9.652851   C108.455002,9.789585 118.622925,9.753699 128.788254,9.659294   C131.865051,9.630718 133.244919,10.621313 133.367325,13.940379   C133.679855,22.414932 133.820160,22.399784 142.375351,22.664978   C143.507751,22.700081 144.635132,22.898064 145.763855,23.020504   C146.976349,25.768484 146.277969,28.461508 146.346756,31.069214   C146.416519,33.714397 146.857422,35.870422 150.121246,35.608440   C153.204666,35.360939 157.184418,36.826668 158.116501,31.887390   C158.178223,31.560278 158.211227,31.227633 158.254303,30.897133   C159.328735,22.654102 159.328659,22.649261 167.627518,22.647678   C183.960129,22.644562 200.292740,22.644529 216.625351,22.649145   C223.214462,22.651007 223.505768,22.670416 223.231522,29.145870   C223.027695,33.959110 224.779907,35.650448 229.514404,35.712601   C233.761063,35.768349 235.173523,34.095070 235.009277,30.112410   C234.672150,21.937101 234.898392,22.461729 242.678741,22.728052   C246.971619,22.874996 248.137543,21.161430 248.119064,17.178926   C248.084366,9.694087 248.255066,9.687599 255.943527,9.685219   C265.109772,9.682382 274.277161,9.773877 283.441711,9.650599   C286.831177,9.605006 288.154572,10.866701 288.255371,14.310764   C288.491364,22.372322 288.627014,22.361826 296.634430,22.693239   C297.622253,22.734125 298.605347,22.889267 299.823639,23.015627   C301.812866,29.885031 300.388245,36.890163 300.809998,43.780651   C301.084412,48.264000 300.777710,52.779953 300.926361,57.274857   C301.053955,61.134068 299.474701,62.480045 295.569489,62.371811   C288.222046,62.168167 288.213745,62.373631 288.212677,69.626167   C288.211487,77.792442 288.350861,85.961899 288.159149,94.123627   C288.065796,98.098091 289.264740,99.842651 293.546204,99.762978   C300.926788,99.625648 300.987762,99.846588 300.926788,107.074493   C300.817261,120.057167 300.339844,133.045639 300.625824,146.018250   C300.736206,151.026077 299.280334,152.705658 294.494293,152.114975   C290.495544,151.621460 287.980713,152.422760 288.031891,157.607468   C288.080048,162.484238 289.605774,164.270065 294.365204,163.709839   C296.121918,163.503082 298.017212,163.303268 299.838013,164.244507   C300.923492,166.410324 300.398621,168.788162 300.332001,171.050201   C300.205994,175.326706 302.024109,176.961807 306.308685,176.928741   C313.761444,176.871231 313.941864,177.050446 314.010529,184.354919   C314.049408,188.497574 315.694702,189.823776 319.737976,189.754364   C326.986755,189.629944 326.992126,189.832657 327.025299,197.310837   C327.043060,201.310547 327.224304,205.319122 327.018860,209.307571   C326.806305,213.433517 328.510773,214.896957 332.594147,214.853104   C339.346954,214.780579 339.378143,214.974136 339.382996,221.726990   C339.392242,234.559616 339.541504,247.396194 339.256683,260.222778   C339.156464,264.736084 340.758331,266.304535 345.029846,265.787720   C346.343292,265.628784 347.695038,265.818512 349.026093,265.766876   C351.546295,265.669098 352.622314,266.820648 352.626068,269.356476   C352.647430,283.847290 352.678772,298.338623 352.838654,312.828339   C352.888214,317.322754 351.380768,319.742920 346.484955,319.012787   C341.495148,318.268707 339.288910,320.373535 340.028168,325.468567   C340.705139,330.134460 338.495117,331.535095 333.993073,331.398499   C327.509064,331.201752 327.319366,331.470978 327.403625,338.052063   C327.451355,341.781311 326.482269,343.448242 322.374512,343.394531   C308.044434,343.207031 293.709198,343.246521 279.378174,343.404724   C275.434540,343.448242 274.124878,342.169983 274.445679,338.136627   C274.951385,331.778351 274.277161,331.289673 267.900543,331.286926   C216.569641,331.264648 165.238739,331.251648 113.907845,331.250946   C107.453804,331.250854 107.216568,331.294678 107.305351,338.013672   C107.361839,342.288269 105.610291,343.386902 101.644539,343.339264   C87.980576,343.175140 74.310707,343.139343 60.648716,343.377655   C56.129883,343.456451 54.030918,342.069336 54.669411,337.427643   C55.204716,333.536163 53.659645,331.336243 49.581203,331.268402   C44.210289,331.179047 41.576748,328.282288 41.650669,323.098175   C41.709148,318.997162 39.734848,318.189178 36.069794,318.297089   C28.829765,318.510254 28.812666,318.328644 28.803236,310.836823   C28.786873,297.837433 28.910902,284.836090 28.710178,271.839691   C28.642792,267.476685 29.747959,265.456909 34.586189,265.658051   C41.624889,265.950714 41.644825,265.660339 41.649017,258.467712   C41.656399,245.801605 41.788139,233.133240 41.577946,220.470642   C41.508377,216.279556 42.543209,214.455826 47.134995,214.613815   C54.731964,214.875183 54.745556,214.610214 54.765972,206.995422   C54.777142,202.828979 54.930470,198.654556 54.723888,194.498428   C54.537354,190.745667 56.131294,189.510529 59.744755,189.635590   C66.586548,189.872375 68.054146,190.974213 67.618904,181.714844   C67.426666,177.625015 69.314018,176.622177 73.001434,176.594727   C80.519722,176.538742 80.882668,176.376801 80.554466,168.944000   C80.314987,163.520584 83.276810,163.244781 87.082413,163.685608   C91.478432,164.194778 93.578667,162.634491 93.616859,157.986877   C93.651558,153.763031 92.171936,152.015091 87.759186,152.095901   C80.679642,152.225540 80.666306,151.996826 80.665756,144.959961   C80.664696,131.460571 80.698738,117.961098 80.661263,104.461823   C80.653587,101.696228 80.927162,99.717148 84.560936,99.557655   C92.802284,99.195923 92.795090,99.032043 93.558952,89.703766  M221.970779,196.553177   C222.048492,189.568466 222.049118,189.652374 228.699097,189.603043   C233.355911,189.568512 238.012573,189.089096 242.665863,189.137619   C246.498734,189.177567 248.386566,187.695312 247.805740,183.815735   C246.948639,178.090790 249.331833,175.977142 255.008423,176.449097   C258.413116,176.732162 261.159851,175.707184 260.867950,171.120972   C260.331940,162.698990 261.201202,163.462601 268.529907,163.715485   C272.921356,163.867020 273.868317,162.043106 273.779114,158.119186   C273.614044,150.858078 273.793915,150.646500 281.012421,150.754150   C285.291962,150.817993 286.905121,149.427383 286.816986,144.997482   C286.581757,133.174728 286.796204,121.343735 286.745728,109.516396   C286.712067,101.626335 287.994781,100.746719 278.874786,101.167290   C275.264496,101.333771 273.664124,99.948639 273.792297,96.255516   C273.948242,91.763191 273.826660,87.261208 273.824249,82.763405   C273.820343,75.458420 273.819183,75.313576 266.512177,75.354622   C262.725586,75.375893 260.613678,74.639610 260.775787,70.129753   C261.061279,62.187023 261.590240,61.972317 252.982315,62.318382   C249.011108,62.478039 247.452225,60.852787 247.829376,57.028404   C247.910751,56.203007 247.782516,55.356617 247.867706,54.531971   C248.257263,50.760857 246.869644,49.021561 242.806366,49.247116   C237.823959,49.523701 232.803650,49.114120 227.820740,49.386047   C223.716736,49.610016 222.231766,48.285015 222.481339,44.002815   C222.880753,37.149284 221.969742,36.433464 215.318085,36.419102   C199.493546,36.384933 183.668945,36.363987 167.844376,36.361382   C159.626892,36.360031 159.458939,36.381886 159.417068,44.490314   C159.398010,48.185696 158.083984,49.552479 154.436966,49.393387   C149.781372,49.190296 145.110245,49.334541 140.445847,49.344208   C133.397141,49.358814 133.176498,49.370220 133.368011,56.586491   C133.481964,60.880165 132.180634,62.551109 127.694977,62.380619   C120.989868,62.125767 120.979927,62.387264 120.907173,68.884682   C120.829605,75.811150 120.826233,75.878090 113.505173,75.508919   C109.768417,75.320488 107.851044,76.649048 108.005547,80.632774   C108.160385,84.625038 108.050621,88.627556 108.057571,92.625580   C108.072067,100.959534 108.072166,101.198708 99.778885,101.194862   C95.247070,101.192757 94.186287,102.992035 94.277679,107.193268   C94.527618,118.682175 94.304535,130.180450 94.396713,141.673996   C94.469963,150.806641 93.096703,150.948334 103.186630,150.602768   C106.590042,150.486221 108.185905,151.773865 107.944504,155.233215   C107.863625,156.392227 108.050240,157.570084 107.966919,158.728714   C107.709305,162.311172 109.141670,163.908615 112.902740,163.704865   C115.300240,163.574982 117.877724,163.008484 120.407921,164.576431   C120.407921,165.501862 120.417755,166.481033 120.406372,167.459976   C120.308037,175.916748 120.305946,175.970795 128.802628,176.121277   C131.834869,176.174973 133.570267,177.196701 133.333954,180.518478   C133.227875,182.009705 133.448944,183.526932 133.309860,185.012543   C132.993134,188.395233 134.258957,189.903931 137.828064,189.743881   C142.483002,189.535141 147.154556,189.701706 151.818954,189.697083   C158.425507,189.690536 158.425522,189.686752 158.426514,196.397537   C158.427368,202.181900 159.247467,202.920380 165.059937,202.906464   C182.049957,202.865784 199.040817,202.794998 216.029648,202.938812   C220.092056,202.973190 222.584717,202.084854 221.970779,196.553177  M185.499939,316.926605   C204.482864,316.950195 223.466263,316.911865 242.448349,317.050049   C246.209396,317.077393 247.658386,315.945221 247.834824,311.937927   C248.049454,307.062866 246.055588,305.575287 241.710297,306.246765   C236.828308,307.001251 235.359756,304.983368 235.548767,300.175446   C235.895233,291.363434 235.646591,282.527893 235.640961,273.702179   C235.636169,266.188812 235.631042,266.047729 243.073898,265.945770   C246.472214,265.899200 247.964111,264.749969 247.766190,261.260223   C247.587402,258.107208 247.743347,254.934662 247.766647,251.770844   C247.838303,242.041214 247.827896,241.864792 257.609131,241.132019   C262.767395,240.745544 261.430695,237.208572 261.662384,234.259781   C261.912933,231.070755 260.992615,229.199310 257.273407,229.341278   C252.118881,229.538055 246.931549,229.103271 241.794342,229.459381   C237.039276,229.789001 234.990845,228.237610 235.602280,223.331818   C236.189606,218.619400 233.958893,216.961227 229.193695,216.995758   C204.050095,217.177902 178.904495,217.067352 153.759705,217.118027   C146.470520,217.132706 146.270142,217.224716 146.331833,224.634384   C146.363861,228.479019 144.818054,229.560150 141.279648,229.422607   C136.458008,229.235168 131.622864,229.351974 126.794121,229.400269   C120.242760,229.465790 120.298538,229.687515 120.278526,236.218857   C120.262405,241.481049 123.730301,240.977341 127.072395,241.064255   C133.833328,241.240051 134.032654,241.426331 134.035736,248.208420   C134.037247,251.538513 133.956451,254.868607 133.915466,258.198730   C133.825516,265.510895 133.827362,265.718964 141.247391,265.677185   C145.308395,265.654358 146.369308,267.313385 146.293549,271.063751   C146.108627,280.218781 146.220795,289.380066 146.235489,298.538788   C146.247650,306.112274 146.257843,306.338959 138.591599,306.209290   C134.247742,306.135834 133.305969,307.970367 133.239014,311.887390   C133.169525,315.952179 134.755417,317.009949 138.540787,316.975006   C153.859344,316.833679 169.180054,316.925476 185.499939,316.926605  M288.203186,270.952911   C288.104889,279.731171 288.109070,279.843781 279.693878,280.155945   C276.489502,280.274811 275.273621,281.489899 275.312469,284.677185   C275.422089,293.667450 275.516052,302.665405 275.249115,311.649414   C275.126495,315.776123 276.590515,317.208282 280.643616,317.299713   C287.903473,317.463440 288.073181,317.654694 288.099640,325.038208   C288.112946,328.744171 289.481567,330.081085 293.114746,329.943329   C298.269135,329.747925 303.438385,329.802826 308.597321,329.922089   C311.814423,329.996429 312.935272,328.540680 313.114197,325.444519   C313.558899,317.748840 313.669128,317.551178 321.085236,317.686371   C325.554352,317.767792 326.843323,315.933197 326.730133,311.712097   C326.498169,303.059631 326.447266,294.389038 326.751526,285.740997   C326.908020,281.294159 325.387573,279.926483 321.025421,280.100983   C313.802246,280.389984 313.686646,280.158142 313.399689,272.653992   C313.252960,268.816742 312.010620,266.855286 307.744812,267.131104   C302.769470,267.452850 297.758850,267.220825 292.763611,267.246094   C290.690338,267.256592 288.652924,267.367188 288.203186,270.952911  M84.400314,329.823578   C93.377998,329.820526 93.893074,329.721832 93.475868,323.394073   C93.125412,318.078583 94.845436,316.572540 99.930756,317.489441   C104.013382,318.225586 105.986092,316.342590 105.872162,311.868103   C105.643204,302.874908 105.802071,293.871277 105.842232,284.872162   C105.853676,282.307587 105.544357,280.173431 102.200592,280.201385   C96.431664,280.249573 93.806915,277.035431 93.441284,271.553619   C93.240784,268.547516 91.748528,267.130707 88.593582,267.224396   C83.765121,267.367706 78.923943,267.382965 74.097649,267.201050   C70.378784,267.060852 69.178093,268.749939 69.061302,272.270172   C68.803802,280.031281 68.675102,280.230652 61.170467,280.080292   C57.102348,279.998779 55.996723,281.612122 56.097084,285.402130   C56.295528,292.895844 56.137199,300.399078 56.119053,307.898376   C56.097832,316.669495 56.089317,316.736206 64.809807,317.406189   C67.176765,317.588074 68.864685,317.713562 69.166451,320.798889   C70.055115,329.884918 70.182121,329.872314 79.430634,329.834259   C80.763855,329.828766 82.097084,329.826111 84.400314,329.823578  z"/>
<path fill="#000000" opacity="1.000000" stroke="none" d=" M222.003845,86.669586   C223.666977,86.669601 224.833954,86.640663 225.998978,86.675926   C229.151932,86.771347 232.891754,85.874458 235.306458,87.266296   C238.265945,88.972168 236.165970,93.061417 236.344727,96.069435   C236.552856,99.572029 238.599701,99.643776 241.063721,99.626953   C249.182983,99.571526 249.347046,98.182922 249.308090,108.131500   C249.273514,116.960258 249.197495,125.790642 249.332489,134.617371   C249.384811,138.039413 248.134857,139.419815 244.664154,139.326111   C238.671799,139.164307 232.665817,139.140259 226.676605,139.359848   C222.829086,139.500916 221.769608,137.761063 221.882889,134.256607   C222.055023,128.931427 221.762024,123.589188 221.996689,118.268753   C222.160202,114.561249 220.794022,113.008011 217.099579,113.415886   C215.614944,113.579796 214.101898,113.468506 212.608948,113.579063   C210.135132,113.762253 208.824402,112.770576 208.828873,110.188477   C208.840454,103.525528 208.843964,96.862328 208.795975,90.199623   C208.777420,87.622131 210.077454,86.649612 212.511826,86.686539   C215.509369,86.732010 218.508408,86.679871 222.003845,86.669586  z"/>
<path fill="#000000" opacity="1.000000" stroke="none" d=" M170.520905,150.329254   C169.062576,137.932663 169.250656,137.714111 180.842606,137.717987   C189.165558,137.720779 197.492081,137.867859 205.809921,137.662857   C209.842285,137.563492 211.794922,138.870239 211.316177,143.085968   C211.166840,144.400803 211.191193,145.755508 211.308594,147.076630   C211.626724,150.657303 210.185043,152.443466 206.465149,152.151245   C205.473083,152.073318 204.457611,152.251404 203.471893,152.141510   C199.108841,151.655151 197.145599,153.145004 197.237152,157.943268   C197.328506,162.731628 199.395920,163.934723 203.709229,163.694702   C208.521484,163.426895 213.368683,163.813599 218.185089,163.585892   C221.974274,163.406754 223.343842,165.059753 223.032654,168.601776   C222.989090,169.097565 223.018921,169.600021 223.019211,170.099396   C223.023346,177.342651 223.023529,177.342316 215.939636,177.343369   C198.627899,177.345963 181.314774,177.231552 164.005386,177.435059   C159.726746,177.485352 158.150909,176.502731 158.485443,171.862289   C159.092148,163.446884 157.155502,163.653687 167.068771,163.639297   C171.230240,163.633270 175.397156,163.485992 179.551666,163.651810   C183.989334,163.828934 183.684540,160.872482 183.667786,157.963593   C183.651474,155.133011 184.210571,152.179688 179.705231,152.123108   C176.694138,152.085297 173.351242,153.327438 170.520905,150.329254  z"/>
<path fill="#000000" opacity="1.000000" stroke="none" d=" M171.318130,105.901413   C171.292526,113.376007 171.293518,113.447952 164.029877,113.548782   C159.942749,113.605522 158.005844,115.090797 158.323517,119.548454   C158.677765,124.519234 158.265671,129.539703 158.416763,134.531601   C158.517929,137.874924 157.365768,139.420364 153.835358,139.321732   C148.010452,139.158981 142.176361,139.213303 136.348495,139.313293   C133.359818,139.364578 132.097809,137.975830 132.090500,135.121124   C132.063629,124.628021 132.054794,114.134689 131.965683,103.642059   C131.936310,100.182335 133.917374,99.501305 136.818939,99.610794   C146.054474,99.959320 144.911804,98.693748 144.655029,91.709038   C144.505951,87.654320 146.118347,86.460556 149.923279,86.613564   C155.410889,86.834244 160.919693,86.819145 166.408585,86.613884   C169.999573,86.479591 171.578751,87.635788 171.377411,91.430397   C171.130661,96.081009 171.318512,100.754684 171.318130,105.901413  z"/>
</svg>