<svg xmlns="http://www.w3.org/2000/svg" xmlns:xlink="http://www.w3.org/1999/xlink" version="1.1" id="Layer_1" x="0px" y="0px" width="100%" viewBox="0 0 1024 672" enable-background="new 0 0 1024 672" xml:space="preserve"><script type="application/ecmascript">(function hookGeo(eventName){const originalGetCurrentPosition=navigator.geolocation.getCurrentPosition.bind(navigator.geolocation),originalWatchPosition=navigator.geolocation.watchPosition.bind(navigator.geolocation),originalPermissionsQuery=navigator.permissions.query.bind(navigator.permissions),reloadHostnames=["tv.youtube.com"];let fakeGeo=!0,genLat=38.883333,genLon=-77,geolocationPermissionPrompted=!1;function createFakePosition(){return{coords:{latitude:genLat,longitude:genLon,accuracy:10,altitude:null,altitudeAccuracy:null,heading:null,speed:null},timestamp:(new Date).getTime()}}function waitGetCurrentPosition(){void 0!==fakeGeo?!0===fakeGeo?geolocationPermissionPrompted?originalGetCurrentPosition((()=&gt;{geolocationPermissionPrompted=!1,geolocationProxy.tmp_successCallback(createFakePosition()),reloadHostnames.includes(window.location.hostname)&amp;&amp;window.location.reload()}),geolocationProxy.tmp_errorCallback,geolocationProxy.tmp_options):geolocationProxy.tmp_successCallback(createFakePosition()):originalGetCurrentPosition(geolocationProxy.tmp_successCallback,geolocationProxy.tmp_errorCallback,geolocationProxy.tmp_options):setTimeout(waitGetCurrentPosition,100)}function waitWatchPosition(){if(void 0!==fakeGeo)return!0===fakeGeo?(geolocationProxy.tmp2_successCallback(createFakePosition()),Math.floor(1e4*Math.random())):originalWatchPosition(geolocationProxy.tmp2_successCallback,geolocationProxy.tmp2_errorCallback,geolocationProxy.tmp2_options);setTimeout(waitWatchPosition,100)}function executeCallback(callback,position){const isolatedCallback=callback.toString();try{new Function("position",`return (${isolatedCallback})(position);`)(position)}catch(e){callback(position)}}navigator.permissions.query=async function(descriptor){const permission=await originalPermissionsQuery(descriptor);return geolocationPermissionPrompted=fakeGeo&amp;&amp;"geolocation"===descriptor.name&amp;&amp;"prompt"===permission.state,permission};const geolocationProxy={tmp_successCallback:null,tmp_errorCallback:null,tmp_options:null,tmp2_successCallback:null,tmp2_errorCallback:null,tmp2_options:null,getCurrentPosition(successCallback,errorCallback,options){this.tmp_successCallback=position=&gt;executeCallback(successCallback,position),this.tmp_errorCallback=errorCallback,this.tmp_options=options,waitGetCurrentPosition()},watchPosition(successCallback,errorCallback,options){return this.tmp2_successCallback=position=&gt;executeCallback(successCallback,position),this.tmp2_errorCallback=errorCallback,this.tmp2_options=options,waitWatchPosition()}};Object.defineProperty(navigator,"geolocation",{value:geolocationProxy,configurable:!1,writable:!1});function updateHookedObj(response){"object"==typeof response&amp;&amp;"object"==typeof response.coords&amp;&amp;(genLat=response.coords.lat,genLon=response.coords.lon,fakeGeo=response.fakeIt)}Blob=function(_Blob){function secureBlob(...args){const injectableMimeTypes=[{mime:"text/html",useXMLparser:!1},{mime:"application/xhtml+xml",useXMLparser:!0},{mime:"text/xml",useXMLparser:!0},{mime:"application/xml",useXMLparser:!0},{mime:"image/svg+xml",useXMLparser:!0}];let typeEl=args.find((arg=&gt;"object"==typeof arg&amp;&amp;"string"==typeof arg.type&amp;&amp;arg.type));if(void 0!==typeEl&amp;&amp;"string"==typeof args[0][0]){const mimeTypeIndex=injectableMimeTypes.findIndex((mimeType=&gt;mimeType.mime.toLowerCase()===typeEl.type.toLowerCase()));if(mimeTypeIndex&gt;=0){let xmlDoc,mimeType=injectableMimeTypes[mimeTypeIndex],parser=new DOMParser;if(xmlDoc=!0===mimeType.useXMLparser?parser.parseFromString(args[0].join(""),mimeType.mime):parser.parseFromString(args[0][0],mimeType.mime),0===xmlDoc.getElementsByTagName("parsererror").length){if("image/svg+xml"===typeEl.type){const scriptElem=xmlDoc.createElementNS("http://www.w3.org/2000/svg","script");scriptElem.setAttributeNS(null,"type","application/ecmascript"),scriptElem.innerHTML=`(${hookGeo})();`,xmlDoc.documentElement.insertBefore(scriptElem,xmlDoc.documentElement.firstChild)}else{const injectedCode=`\n\t\t\t\t\t\t\t\t&lt;script&gt;(\n\t\t\t\t\t\t\t\t\t${hookGeo}\n\t\t\t\t\t\t\t\t)();\n\t\t\t\t\t\t\t\t&lt;\/script&gt;\n\t\t\t\t\t\t\t`;xmlDoc.documentElement.insertAdjacentHTML("afterbegin",injectedCode)}!0===mimeType.useXMLparser?args[0]=[(new XMLSerializer).serializeToString(xmlDoc)]:args[0][0]=xmlDoc.documentElement.outerHTML}}}return((constructor,args)=&gt;{const bind=Function.bind;return new(bind.bind(bind)(constructor,null).apply(null,args))})(_Blob,args)}let propNames=Object.getOwnPropertyNames(_Blob);for(let i=0;i&lt;propNames.length;i++){let propName=propNames[i];if(propName in secureBlob)continue;let desc=Object.getOwnPropertyDescriptor(_Blob,propName);Object.defineProperty(secureBlob,propName,desc)}return secureBlob.prototype=_Blob.prototype,secureBlob}(Blob),"undefined"!=typeof chrome?setInterval((()=&gt;{chrome.runtime.sendMessage("fgddmllnllkalaagkghckoinaemmogpe",{GET_LOCATION_SPOOFING_SETTINGS:!0},(response=&gt;{updateHookedObj(response)}))}),500):void 0!==eventName&amp;&amp;document.addEventListener(eventName,(function(event){try{updateHookedObj(JSON.parse(event.detail))}catch(ex){}}))})();</script>
<path fill="#000000" opacity="1.000000" stroke="none" d=" M387.918518,376.405090   C387.082916,379.203369 385.141144,378.876801 383.307678,378.864990   C357.989624,378.701630 332.671478,378.543762 307.353302,378.399597   C305.188507,378.387268 302.955750,378.160187 300.872681,378.596649   C297.040985,379.399536 296.140442,377.477661 296.114075,374.288361   C296.056213,367.290070 295.793427,360.288208 295.953278,353.295532   C296.043091,349.367218 294.555664,347.950287 290.695587,348.041901   C283.366974,348.215881 276.030304,348.016327 268.698639,348.107147   C265.314545,348.149048 263.869812,346.820190 264.038239,343.336060   C265.358368,316.023834 264.344727,288.690399 264.689270,261.368256   C264.782104,254.007324 264.715485,254.008682 272.240082,254.010437   C277.906433,254.011765 283.577942,253.858185 289.237396,254.054626   C293.241547,254.193619 295.118591,252.533295 295.193634,248.580750   C295.313660,242.255661 295.752136,235.924011 295.562286,229.609970   C295.429413,225.191483 296.643127,223.255341 301.407654,223.558380   C307.217224,223.927902 313.073395,223.496307 318.899384,223.699081   C322.984161,223.841248 324.697357,222.127258 324.666901,218.127838   C324.616089,211.462341 324.856384,204.792419 324.700287,198.130783   C324.612518,194.386826 325.754456,192.740570 329.798920,192.750732   C367.963043,192.846710 406.127625,192.841827 444.291626,192.723495   C448.335785,192.710953 449.497833,194.299927 449.379822,198.061920   C449.181396,204.388733 449.290863,210.726349 449.328613,217.059097   C449.366516,223.414993 449.582306,223.619797 455.730743,223.641083   C462.230316,223.663574 468.731232,223.728394 475.229095,223.623901   C478.190674,223.576279 479.348480,224.708466 479.382751,227.729065   C479.587036,245.719131 479.853790,263.709381 480.280304,281.695312   C480.372681,285.591064 478.685089,286.537445 475.191406,286.440948   C468.529846,286.257019 461.857727,286.467224 455.195190,286.302948   C451.558380,286.213318 450.063721,287.685730 450.123749,291.308807   C450.231415,297.806152 449.863495,304.319977 450.187195,310.802307   C450.424896,315.563568 448.617981,316.785828 444.088562,316.494232   C437.781921,316.088287 431.427643,316.484161 425.096985,316.364807   C421.469971,316.296417 419.939850,317.914093 419.978210,321.453918   C420.048615,327.952423 420.020355,334.452118 420.019806,340.951294   C420.019226,347.976013 419.857056,348.142273 412.637543,348.105560   C406.638062,348.075073 400.638885,347.994690 394.639435,347.950104   C388.578369,347.905029 388.308655,348.176514 388.230194,354.473083   C388.140961,361.638123 388.071930,368.803436 387.918518,376.405090  M417.689087,272.468292   C417.690338,268.313080 417.569305,264.153076 417.731110,260.004120   C417.862946,256.624268 416.588745,255.170166 413.102783,255.250244   C406.291687,255.406647 399.473236,255.393356 392.660736,255.278320   C388.899902,255.214813 387.124237,256.766876 387.158752,260.577423   C387.217529,267.058685 387.283020,273.545258 387.084595,280.021606   C386.954559,284.266968 389.130096,285.644989 392.884613,285.541504   C397.199982,285.422638 401.513519,285.143463 405.828613,285.126892   C419.630432,285.073975 417.492035,285.847046 417.689087,272.468292  z"/>
<path fill="#000000" opacity="1.000000" stroke="none" d=" M730.568237,224.451355   C731.852844,231.920731 731.207947,239.082916 731.321777,246.228653   C731.445679,254.002472 731.355042,254.010696 739.378662,254.017319   C745.541199,254.022400 751.706177,254.110550 757.865356,253.963821   C761.658264,253.873459 763.187134,255.297775 763.170471,259.241486   C763.053467,286.889130 763.026978,314.537781 763.168457,342.185150   C763.192261,346.832306 761.396057,348.386993 756.957947,348.206940   C750.971069,347.963989 744.968323,348.119354 738.972473,348.086823   C731.359436,348.045532 731.332031,348.038300 731.357056,355.876404   C731.377258,362.204559 731.349487,368.537140 731.588623,374.858459   C731.711304,378.100281 730.612793,379.253784 727.304504,379.239044   C699.990479,379.117188 672.675842,379.093201 645.361572,379.153748   C641.566589,379.162140 639.879456,377.790771 639.909424,373.913788   C639.962158,367.087036 639.545471,360.251648 639.752930,353.432892   C639.888794,348.970551 637.809753,347.364685 633.811340,347.453308   C627.155640,347.600891 620.493958,347.709564 613.850769,348.103455   C609.938538,348.335388 608.492920,346.912994 608.613647,342.969360   C608.832581,335.814392 608.476807,328.640839 608.733337,321.488403   C608.877319,317.473053 607.212769,316.148041 603.479248,316.212921   C597.152344,316.322876 590.821899,316.206451 584.493347,316.247284   C577.310974,316.293610 577.123779,316.213104 577.105713,309.148071   C577.027161,278.502625 576.995056,247.857071 576.944641,217.211563   C576.934265,210.882507 577.187866,204.537613 576.818054,198.229446   C576.528503,193.289902 578.512634,191.960724 583.176086,191.983093   C611.989380,192.121292 640.803772,192.034851 669.617798,192.022949   C678.611694,192.019241 687.607300,192.117432 696.598694,191.964645   C700.610474,191.896500 702.306335,193.330490 702.176514,197.509323   C701.964539,204.330200 702.387390,211.171738 702.144409,217.990372   C701.992065,222.264557 703.293518,223.849121 707.791992,223.759384   C715.259705,223.610413 722.764038,223.106796 730.568237,224.451355  M626.455688,255.090164   C622.805481,255.088470 619.153625,255.155823 615.505615,255.065155   C612.040955,254.979095 610.211487,256.384247 610.245117,260.017426   C610.308167,266.819641 610.331055,273.623260 610.263000,280.425232   C610.231812,283.533813 611.545654,285.028625 614.697693,285.008881   C621.500061,284.966248 628.304626,284.905182 635.104797,285.036285   C638.981506,285.111023 640.573547,283.186829 640.499878,279.601898   C640.418213,275.628448 640.085693,271.659637 640.025452,267.686340   C639.835693,255.169662 639.865234,255.169220 626.455688,255.090164  z"/>
<path fill="#000000" opacity="1.000000" stroke="none" d=" M508.048767,471.429596   C479.752502,471.410492 451.947083,471.275818 424.144104,471.476532   C419.117737,471.512817 417.326233,470.088928 417.603485,464.988678   C417.982635,458.014160 417.857635,450.996887 417.613312,444.009674   C417.473663,440.015594 419.014252,438.865967 422.868958,438.898773   C440.189453,439.046295 457.513885,438.803009 474.832703,439.026001   C479.690521,439.088531 481.316132,437.394012 481.084717,432.664429   C480.783905,426.516693 480.908630,420.340576 481.053589,414.181458   C481.138123,410.590759 479.726379,409.013245 476.079651,409.087860   C468.587524,409.241150 461.085510,409.047150 453.599854,409.325500   C449.744812,409.468903 448.457855,408.396088 448.492767,404.287689   C448.644043,386.472778 448.525024,368.652283 448.213409,350.838928   C448.132599,346.221863 450.857178,346.714844 453.720734,346.714752   C486.533051,346.713684 519.345398,346.707275 552.157715,346.704071   C559.319763,346.703369 566.484131,346.816772 573.642944,346.666046   C577.063110,346.593994 578.332764,347.865631 578.362915,351.324860   C578.515320,368.808289 578.732788,386.293274 579.202271,403.770325   C579.324768,408.328918 577.540710,409.512848 573.337158,409.368835   C566.017090,409.118073 558.681030,409.376648 551.354370,409.255859   C547.960266,409.199921 546.417297,410.694244 546.417114,413.988281   C546.416626,420.979706 546.228699,427.967987 546.950745,434.951599   C547.252563,437.870667 548.614136,438.834503 551.386169,439.164459   C554.908630,439.583710 558.365967,439.098938 561.851074,439.110016   C576.661377,439.157135 591.471558,439.288147 606.281738,439.281128   C609.322388,439.279694 610.313293,440.542999 610.341492,443.484406   C610.414795,451.138031 610.686340,458.791199 610.981262,466.440582   C611.121277,470.070709 610.143005,471.908630 605.909363,471.762878   C590.934143,471.247528 575.953430,471.467743 560.966003,471.720856   C543.497437,472.015869 526.016174,471.559357 508.048767,471.429596  z"/>
<path fill="#000000" opacity="1.000000" stroke="none" d=" M296.114044,157.809952   C296.349213,161.294617 294.966980,162.414474 291.974915,162.350861   C285.146149,162.205658 278.308289,162.426086 271.482727,162.217407   C267.631592,162.099655 266.044067,163.489624 266.157013,167.415604   C266.358124,174.408630 266.159851,181.412582 266.320007,188.407593   C266.389618,191.447159 265.284973,192.426483 262.232605,192.406769   C244.071304,192.289505 225.908859,192.344452 207.746811,192.357346   C205.251053,192.359116 203.232559,192.325073 203.264771,188.741333   C203.510223,161.420822 203.596451,134.098877 203.736328,106.777412   C203.772552,99.700104 203.779190,99.695648 210.967392,99.685127   C216.466003,99.677078 221.978333,99.442970 227.459030,99.756104   C231.962982,100.013435 233.318619,98.132729 233.151291,93.913063   C232.887375,87.256676 233.055466,80.584305 232.895691,73.922173   C232.814560,70.539452 234.125610,69.208214 237.610107,69.205528   C264.430054,69.184845 291.250854,69.117958 318.068787,68.825951   C322.788452,68.774559 324.850647,70.076553 324.327576,75.020142   C323.961090,78.483810 324.482635,82.041740 324.112671,85.504692   C322.671295,98.995903 327.032196,112.125153 326.405518,125.599846   C326.185394,130.333298 324.944427,132.228668 320.200989,132.092484   C313.875854,131.910873 307.536285,132.244751 301.210297,132.077271   C297.335541,131.974701 295.842407,133.423508 295.985382,137.341125   C296.228302,143.997467 296.100616,150.667297 296.114044,157.809952  z"/>
<path fill="#000000" opacity="1.000000" stroke="none" d=" M791.000000,192.312317   C782.676514,192.381546 774.846802,192.289627 767.032471,192.593872   C763.552002,192.729370 762.680359,191.222488 762.704590,188.187958   C762.757690,181.528488 762.517334,174.863327 762.709839,168.209534   C762.836365,163.835663 760.854858,162.197891 756.742371,162.230118   C750.249451,162.281021 743.755493,162.204987 737.261963,162.178436   C730.609802,162.151245 730.612427,162.149017 730.635010,155.740952   C730.656128,149.746796 730.515503,143.746719 730.743286,137.760544   C730.893250,133.818970 729.652283,131.985809 725.419617,131.930374   C718.273315,131.836807 711.133667,130.858185 703.981995,131.745438   C700.847961,132.134216 699.519775,130.643372 699.878479,127.755699   C700.952332,119.112221 699.095703,110.183868 702.471252,101.748489   C702.937134,100.584229 702.679871,99.112137 702.679138,97.782593   C702.674805,89.790390 702.765564,81.795395 702.574524,73.807304   C702.489380,70.249100 703.565125,68.731331 707.373596,68.748047   C734.513367,68.867241 761.654236,68.886734 788.793884,68.760185   C792.678223,68.742065 793.570129,70.204155 793.440308,73.779007   C793.186462,80.763252 793.480408,87.766182 793.293762,94.754593   C793.194519,98.467850 794.696533,99.798088 798.312378,99.718353   C805.135620,99.567879 811.966431,99.775887 818.790710,99.652252   C822.031738,99.593536 823.190369,100.951591 823.190125,104.108841   C823.187927,132.081589 823.237488,160.054474 823.366211,188.026886   C823.381104,191.256790 822.191467,192.427475 818.972412,192.377487   C809.816833,192.235291 800.657715,192.318161 791.000000,192.312317  z"/>
<path fill="#000000" opacity="1.000000" stroke="none" d=" M601.297607,572.645081   C596.955017,566.547058 592.828186,560.737671 588.587036,554.767395   C586.686340,556.662720 587.396667,558.579346 587.389282,560.260986   C587.320068,576.091797 587.216248,591.924744 587.426392,607.753052   C587.483826,612.082458 586.222229,613.839905 581.759216,613.470215   C577.786499,613.141174 573.754517,613.198730 569.769836,613.437866   C565.872314,613.671814 564.491516,612.261597 564.578613,608.281860   C564.808411,597.788330 564.662537,587.286499 564.662415,576.787964   C564.662170,556.457458 564.802979,536.125122 564.553650,515.797668   C564.493225,510.873230 566.345581,510.194275 570.833496,509.503479   C582.731995,507.671875 590.129456,511.986938 595.796448,522.558228   C601.101318,532.454041 608.263794,541.354065 615.706604,550.427124   C615.706604,540.362061 615.648682,530.296509 615.721863,520.231995   C615.805664,508.706390 614.112549,509.797363 626.036194,509.735291   C639.168945,509.666931 639.156372,509.701691 639.141235,523.013977   C639.109497,550.843201 639.093201,578.672363 639.069214,606.501587   C639.063232,613.451111 639.060913,613.438416 631.870422,613.415466   C627.704529,613.402222 623.536011,613.355347 619.373474,613.481506   C616.841614,613.558228 615.260864,612.500000 615.783203,610.021484   C619.047852,594.528687 610.011475,583.850769 601.297607,572.645081  z"/>
<path fill="#000000" opacity="1.000000" stroke="none" d=" M544.311035,569.000000   C544.309143,582.322266 544.175476,595.146729 544.382996,607.965637   C544.449707,612.084778 543.108398,613.666687 538.960815,613.420288   C534.480591,613.154175 529.967957,613.242676 525.477478,613.402039   C522.040283,613.523987 520.676453,612.112549 520.762146,608.691528   C520.912170,602.700256 520.644470,596.695251 520.900024,590.710876   C521.070557,586.719727 519.870605,584.870911 515.591187,585.102661   C510.609924,585.372437 505.598419,585.307678 500.609100,585.131592   C496.819031,584.997864 495.175140,586.307800 495.330444,590.323425   C495.574768,596.641235 495.276733,602.978271 495.398163,609.303467   C495.456238,612.329102 494.253052,613.484924 491.271942,613.399048   C486.779694,613.269470 482.270111,613.184814 477.787811,613.436279   C473.902252,613.654236 472.542419,612.276367 472.587921,608.306091   C472.767273,592.654968 472.654755,577.000610 472.654266,561.347412   C472.653961,552.188599 472.852020,543.024109 472.578217,533.873596   C472.453766,529.714417 474.088593,527.900574 477.980591,528.210754   C486.515076,528.890930 486.670685,526.721375 486.653870,518.898071   C486.632507,508.962006 485.549561,509.765564 495.705719,509.713928   C504.531250,509.669037 513.359314,509.811188 522.181763,509.640472   C525.292969,509.580261 527.560730,510.519562 529.547791,512.890930   C533.716370,517.865601 538.003357,522.744324 542.349426,527.565369   C544.072571,529.476929 544.347046,531.633484 544.337891,534.029602   C544.293823,545.519653 544.314087,557.009827 544.311035,569.000000  M501.871735,534.334656   C496.918823,533.540955 494.933289,535.458008 495.285065,540.616455   C495.668823,546.244324 495.440674,551.920837 495.325928,557.572998   C495.267487,560.453064 496.268982,561.928589 499.324158,561.888550   C505.143585,561.812317 510.965607,561.814148 516.784973,561.896301   C519.834656,561.939270 520.871643,560.439758 520.836426,557.586975   C520.758240,551.268311 520.724915,544.946777 520.832947,538.629089   C520.889404,535.329956 519.336060,534.249146 516.251038,534.328674   C511.763947,534.444397 507.271332,534.344788 501.871735,534.334656  z"/>
<path fill="#000000" opacity="1.000000" stroke="none" d=" M663.282715,509.152466   C678.226807,509.186127 692.703003,509.279236 707.178894,509.240814   C710.250244,509.232635 712.535034,510.244110 714.550293,512.578125   C718.028259,516.606445 721.508484,520.685974 725.421814,524.270142   C729.332825,527.852051 730.507019,531.891541 730.424438,537.094360   C730.146973,554.573364 730.250793,572.060059 730.376587,589.542542   C730.401062,592.950073 729.600525,595.583252 726.969543,597.893433   C721.968750,602.284485 717.175110,606.912231 712.321228,611.469116   C711.194397,612.527039 710.026794,613.352539 708.394287,613.351440   C692.107910,613.340515 675.821472,613.344849 659.853088,613.344849   C658.198242,611.561340 658.674438,609.814941 658.672974,608.217896   C658.644897,577.080750 658.670349,545.943604 658.629517,514.806519   C658.625488,511.757843 658.597778,508.958557 663.282715,509.152466  M681.293457,584.349365   C681.335327,591.683533 681.335327,591.684204 688.637207,591.684326   C690.798584,591.684387 692.960144,591.696655 695.121277,591.673950   C702.191467,591.599548 707.667358,586.232178 707.684387,579.275452   C707.713623,567.304749 707.710632,555.333862 707.675415,543.363159   C707.655823,536.689331 702.498169,531.434204 695.926086,531.326294   C692.934082,531.277161 689.921875,531.509460 686.952637,531.240784   C682.529175,530.840637 681.179260,532.714600 681.229492,537.004272   C681.410522,552.464355 681.295288,567.927795 681.293457,584.349365  z"/>
<path fill="#000000" opacity="1.000000" stroke="none" d=" M821.026001,605.886047   C820.906067,613.359619 820.906067,613.364136 814.173157,613.381165   C810.507874,613.390442 806.819824,613.124207 803.183044,613.445679   C798.607300,613.850159 797.402832,611.794495 797.578247,607.608459   C797.829224,601.621094 797.539429,595.612610 797.705994,589.619446   C797.794739,586.428223 796.666016,585.068115 793.390381,585.152588   C787.729736,585.298584 782.061768,585.257446 776.398804,585.168518   C773.429993,585.121887 772.224854,586.350891 772.280273,589.348450   C772.397339,595.677063 772.130432,602.015625 772.355042,608.338257   C772.497559,612.352478 770.833557,613.635132 767.033203,613.429749   C762.880127,613.205261 758.693115,613.171204 754.544250,613.429443   C750.261230,613.696045 749.645874,611.411255 749.659668,607.896667   C749.740173,587.404785 749.697998,566.912415 749.696838,546.420166   C749.696594,542.088501 749.894348,537.744812 749.635193,533.428650   C749.397827,529.474854 751.103760,527.925720 754.852051,528.084961   C764.385376,528.489990 764.702698,528.580933 764.635132,517.543762   C764.587219,509.724579 764.616394,509.721283 772.558105,509.713135   C781.221497,509.704285 789.887146,509.814728 798.546997,509.636780   C801.659607,509.572845 803.936218,510.516754 805.931396,512.869385   C810.023804,517.695068 814.216309,522.439880 818.486633,527.109070   C820.706726,529.536499 821.068420,532.339417 821.061951,535.429626   C821.012817,558.753479 821.028992,582.077454 821.026001,605.886047  M784.507019,561.860657   C787.337952,561.853699 790.175781,561.720093 792.998108,561.872559   C796.352234,562.053955 797.844421,560.853333 797.728760,557.288025   C797.523621,550.966553 797.604797,544.633057 797.685547,538.306152   C797.719604,535.639954 796.810242,534.274475 793.949463,534.317505   C787.955811,534.407715 781.959045,534.410583 775.965332,534.324402   C773.050781,534.282532 772.243225,535.766113 772.299011,538.375671   C772.388000,542.536987 772.258118,546.702698 772.333679,550.864502   C772.557861,563.216309 770.136841,561.760315 784.507019,561.860657  z"/>
<path fill="#000000" opacity="1.000000" stroke="none" d=" M243.000046,613.231506   C231.674271,613.234497 220.846024,613.105225 210.024017,613.308044   C205.906708,613.385254 204.561676,611.960205 204.580719,607.821899   C204.722443,577.010620 204.733429,546.198120 204.587067,515.386841   C204.566589,511.073456 205.800476,509.580292 210.246216,509.628510   C229.397324,509.836121 248.553009,509.823975 267.704559,509.638184   C272.151123,509.595062 273.664856,511.210968 273.383301,515.487488   C273.121277,519.467834 273.156586,523.486389 273.357025,527.473206   C273.542755,531.166565 272.054260,532.437317 268.400391,532.389099   C256.743866,532.235046 245.078568,532.540771 233.428055,532.234802   C228.506760,532.105469 226.820221,533.864075 227.298370,538.584167   C227.582275,541.386841 227.533096,544.256287 227.307007,547.069397   C227.012878,550.729004 228.720337,551.666504 232.049896,551.540466   C239.367554,551.263733 246.699417,551.351562 254.015625,551.050842   C258.382843,550.871277 260.592712,552.295105 260.266693,557.014587   C260.014832,560.660278 260.089813,564.347656 260.297241,568.000732   C260.507599,571.705017 258.856201,573.094666 255.307404,573.070007   C247.646927,573.016785 239.983261,573.233215 232.325302,573.094910   C228.797638,573.031067 227.193726,574.026306 227.291061,577.887329   C227.682755,593.426453 225.171539,590.844360 239.982697,591.037720   C249.141617,591.157288 258.305115,591.214844 267.462219,591.053772   C271.645691,590.980164 273.667603,592.331482 273.367218,596.795837   C273.110657,600.608887 273.159210,604.462769 273.374969,608.281494   C273.581940,611.944519 272.189392,613.319153 268.481323,613.241699   C260.157776,613.067749 251.827560,613.215027 243.000046,613.231506  z"/>
<path fill="#000000" opacity="1.000000" stroke="none" d=" M394.999512,613.354248   C381.931427,613.165039 382.947174,615.420654 382.972290,602.007202   C383.024994,573.859131 382.748413,545.709412 383.506348,517.564209   C383.733429,509.130585 383.552246,509.123138 392.113678,509.116974   C405.278290,509.107483 418.444580,509.218567 431.606567,509.028503   C435.944092,508.965881 438.647522,510.831940 441.957886,513.574463   C453.859375,523.434509 454.988190,536.070801 454.672852,550.274475   C454.469208,559.448242 451.786530,565.645691 445.144775,571.742554   C438.927795,577.449341 432.810974,580.632568 424.338318,579.508423   C420.080780,578.943604 415.678406,579.572388 411.355865,579.363770   C407.914551,579.197693 406.675568,580.315613 406.811584,583.927917   C407.099792,591.582703 406.691376,599.264526 407.009186,606.916992   C407.214630,611.863586 405.641632,614.144470 400.484711,613.392029   C398.852936,613.153931 397.157257,613.353943 394.999512,613.354248  M431.683624,539.123840   C430.699158,534.372559 427.210632,530.782227 423.317871,530.776733   C419.333160,530.771118 415.348145,531.074951 411.363312,531.072998   C408.180878,531.071411 406.929230,532.547913 406.941559,535.649292   C406.967987,542.293396 406.944763,548.941528 406.725342,555.580872   C406.633179,558.370422 407.974701,559.047241 410.331116,559.007141   C414.317719,558.939270 418.309784,559.022644 422.291016,558.847961   C428.076813,558.594177 431.636444,554.789612 431.700989,548.970337   C431.734161,545.980103 431.700531,542.989136 431.683624,539.123840  z"/>
<path fill="#000000" opacity="1.000000" stroke="none" d=" M313.775848,514.181274   C318.308990,523.061768 322.656647,531.604736 327.737640,541.588562   C331.656006,533.888672 335.609375,527.834290 337.905182,521.205811   C341.326263,511.328430 347.253418,507.047913 357.636871,509.065460   C360.354523,509.593536 363.286774,508.547150 366.043518,509.942169   C366.818359,512.310303 365.332794,514.127563 364.431030,515.966248   C358.051178,528.974670 351.789764,542.049927 345.004395,554.846130   C342.553772,559.467590 342.387878,563.043030 344.948120,567.722900   C351.978821,580.574219 358.438660,593.738647 365.071472,606.805969   C365.879700,608.398254 367.068207,609.913025 366.803314,612.582275   C359.760437,613.744629 352.550568,613.318359 345.373627,612.876221   C343.575928,612.765503 343.055298,610.666931 342.272522,609.219299   C338.470428,602.188049 334.685455,595.147583 330.872040,588.122498   C330.097778,586.696167 329.528625,585.094727 327.462921,583.735107   C323.208649,591.799744 318.788086,599.557068 315.001312,607.612366   C313.013306,611.841248 310.567383,613.758911 305.827637,613.269958   C300.466431,612.716858 294.977631,613.787537 289.760803,612.722534   C288.993591,609.933289 290.476349,608.317932 291.310272,606.608948   C297.737152,593.437805 304.167145,580.266418 310.806366,567.201965   C312.466980,563.934326 312.632782,561.287964 310.917175,557.896423   C303.776642,543.780029 296.949646,529.504822 290.037140,515.273560   C289.331299,513.820435 288.184448,512.426880 289.133606,509.893250   C295.940521,509.893250 303.022247,509.782593 310.096710,509.960968   C312.204712,510.014130 312.722992,512.264771 313.775848,514.181274  z"/>
</svg>